%
M48
M72
T01C0.02362
T02C0.03600
T03C0.04000
%
T01
X82205Y53987
X127105Y51787
T02
X175573Y71007
X19949Y71104
T03
X20099Y18348
X55669Y42502
X55669Y52502
X60222Y65000
X70222Y65000
X80222Y65000
X91549Y66100
X91549Y56100
X140528Y52180
X140528Y42180
X126305Y25987
X116305Y25987
X101594Y15200
X91594Y15200
X176596Y17560
X140088Y66508
M30
