G75*
%MOIN*%
%OFA0B0*%
%FSLAX25Y25*%
%IPPOS*%
%LPD*%
%AMOC8*
5,1,8,0,0,1.08239X$1,22.5*
%
%ADD10C,0.00300*%
%ADD11C,0.01500*%
%ADD12R,0.02400X0.01500*%
%ADD13C,0.00500*%
%ADD14C,0.00800*%
%ADD15R,0.01500X0.03000*%
%ADD16C,0.00600*%
%ADD17C,0.00492*%
%ADD18C,0.00984*%
%ADD19R,0.03000X0.01500*%
D10*
X0091163Y0041354D02*
X0091680Y0040837D01*
X0092714Y0040837D01*
X0093231Y0041354D01*
X0094294Y0041354D02*
X0094294Y0041871D01*
X0095328Y0042906D01*
X0095328Y0043423D01*
X0094811Y0043940D01*
X0094294Y0043423D01*
X0094294Y0042906D01*
X0096362Y0040837D01*
X0095328Y0040837D02*
X0094811Y0040837D01*
X0094294Y0041354D01*
X0095328Y0040837D02*
X0096362Y0041871D01*
X0097424Y0041871D02*
X0099493Y0043940D01*
X0097424Y0043940D02*
X0097424Y0040837D01*
X0097941Y0042388D02*
X0099493Y0040837D01*
X0093231Y0043423D02*
X0092714Y0043940D01*
X0091680Y0043940D01*
X0091163Y0043423D01*
X0091163Y0041354D01*
X0134155Y0026223D02*
X0134155Y0025606D01*
X0134772Y0024989D01*
X0136007Y0024989D01*
X0136624Y0024372D01*
X0136624Y0023754D01*
X0136007Y0023137D01*
X0134772Y0023137D01*
X0134155Y0023754D01*
X0137838Y0023137D02*
X0139690Y0023137D01*
X0140307Y0023754D01*
X0140307Y0026223D01*
X0139690Y0026840D01*
X0137838Y0026840D01*
X0137838Y0023137D01*
X0141521Y0023137D02*
X0141521Y0025606D01*
X0142756Y0026840D01*
X0143990Y0025606D01*
X0143990Y0023137D01*
X0143990Y0024989D02*
X0141521Y0024989D01*
X0136624Y0026223D02*
X0136007Y0026840D01*
X0134772Y0026840D01*
X0134155Y0026223D01*
D11*
X0130115Y0038087D02*
X0129895Y0038087D01*
X0080225Y0015557D02*
X0080005Y0015557D01*
X0038788Y0018077D02*
X0038788Y0018297D01*
X0126105Y0061977D02*
X0126105Y0062197D01*
D12*
X0068272Y0015462D03*
D13*
X0063422Y0020416D02*
X0063422Y0025927D01*
X0052792Y0025927D01*
X0052792Y0020416D01*
X0063422Y0020416D01*
X0065405Y0034087D02*
X0065405Y0049087D01*
X0100405Y0049087D01*
X0100405Y0034087D01*
X0065405Y0034087D01*
X0075405Y0037087D02*
X0090405Y0037087D01*
X0090405Y0045587D01*
X0075405Y0045587D01*
X0075405Y0037087D01*
D14*
X0017599Y0013348D02*
X0015099Y0015848D01*
X0015099Y0020848D01*
X0017599Y0023348D01*
X0022599Y0023348D01*
X0025099Y0020848D01*
X0025099Y0015848D01*
X0022599Y0013348D01*
X0017599Y0013348D01*
X0050669Y0040002D02*
X0053169Y0037502D01*
X0058169Y0037502D01*
X0060669Y0040002D01*
X0060669Y0045002D01*
X0058169Y0047502D01*
X0060669Y0050002D01*
X0060669Y0055002D01*
X0058169Y0057502D01*
X0053169Y0057502D01*
X0050669Y0055002D01*
X0050669Y0050002D01*
X0053169Y0047502D01*
X0050669Y0045002D01*
X0050669Y0040002D01*
X0086549Y0053600D02*
X0086549Y0058600D01*
X0089049Y0061100D01*
X0086549Y0063600D01*
X0086549Y0068600D01*
X0089049Y0071100D01*
X0094049Y0071100D01*
X0096549Y0068600D01*
X0096549Y0063600D01*
X0094049Y0061100D01*
X0096549Y0058600D01*
X0096549Y0053600D01*
X0094049Y0051100D01*
X0089049Y0051100D01*
X0086549Y0053600D01*
X0082722Y0060000D02*
X0077722Y0060000D01*
X0075222Y0062500D01*
X0072722Y0060000D01*
X0067722Y0060000D01*
X0065222Y0062500D01*
X0062722Y0060000D01*
X0057722Y0060000D01*
X0055222Y0062500D01*
X0055222Y0067500D01*
X0057722Y0070000D01*
X0062722Y0070000D01*
X0065222Y0067500D01*
X0067722Y0070000D01*
X0072722Y0070000D01*
X0075222Y0067500D01*
X0077722Y0070000D01*
X0082722Y0070000D01*
X0085222Y0067500D01*
X0085222Y0062500D01*
X0082722Y0060000D01*
X0135088Y0064008D02*
X0137588Y0061508D01*
X0142588Y0061508D01*
X0145088Y0064008D01*
X0145088Y0069008D01*
X0142588Y0071508D01*
X0137588Y0071508D01*
X0135088Y0069008D01*
X0135088Y0064008D01*
X0138028Y0057180D02*
X0135528Y0054680D01*
X0135528Y0049680D01*
X0138028Y0047180D01*
X0135528Y0044680D01*
X0135528Y0039680D01*
X0138028Y0037180D01*
X0143028Y0037180D01*
X0145528Y0039680D01*
X0145528Y0044680D01*
X0143028Y0047180D01*
X0145528Y0049680D01*
X0145528Y0054680D01*
X0143028Y0057180D01*
X0138028Y0057180D01*
X0128805Y0030987D02*
X0123805Y0030987D01*
X0121305Y0028487D01*
X0118805Y0030987D01*
X0113805Y0030987D01*
X0111305Y0028487D01*
X0111305Y0023487D01*
X0113805Y0020987D01*
X0118805Y0020987D01*
X0121305Y0023487D01*
X0123805Y0020987D01*
X0128805Y0020987D01*
X0131305Y0023487D01*
X0131305Y0028487D01*
X0128805Y0030987D01*
X0106594Y0017700D02*
X0104094Y0020200D01*
X0099094Y0020200D01*
X0096594Y0017700D01*
X0094094Y0020200D01*
X0089094Y0020200D01*
X0086594Y0017700D01*
X0086594Y0012700D01*
X0089094Y0010200D01*
X0094094Y0010200D01*
X0096594Y0012700D01*
X0099094Y0010200D01*
X0104094Y0010200D01*
X0106594Y0012700D01*
X0106594Y0017700D01*
X0171596Y0020060D02*
X0171596Y0015060D01*
X0174096Y0012560D01*
X0179096Y0012560D01*
X0181596Y0015060D01*
X0181596Y0020060D01*
X0179096Y0022560D01*
X0174096Y0022560D01*
X0171596Y0020060D01*
D15*
X0118505Y0036887D03*
X0112038Y0067787D03*
D16*
X0172573Y0068007D02*
X0173573Y0068007D01*
X0172573Y0068007D02*
X0172573Y0069007D01*
X0177573Y0068007D02*
X0178573Y0068007D01*
X0178573Y0069007D01*
X0178573Y0073007D02*
X0178573Y0074007D01*
X0177573Y0074007D01*
X0173573Y0074007D02*
X0172573Y0074007D01*
X0172573Y0073007D01*
X0022949Y0073104D02*
X0022949Y0074104D01*
X0021949Y0074104D01*
X0017949Y0074104D02*
X0016949Y0074104D01*
X0016949Y0073104D01*
X0016949Y0069104D02*
X0016949Y0068104D01*
X0017949Y0068104D01*
X0021949Y0068104D02*
X0022949Y0068104D01*
X0022949Y0069104D01*
D17*
X0109618Y0041910D02*
X0109620Y0041949D01*
X0109626Y0041988D01*
X0109636Y0042026D01*
X0109649Y0042063D01*
X0109666Y0042098D01*
X0109686Y0042132D01*
X0109710Y0042163D01*
X0109737Y0042192D01*
X0109766Y0042218D01*
X0109798Y0042241D01*
X0109832Y0042261D01*
X0109868Y0042277D01*
X0109905Y0042289D01*
X0109944Y0042298D01*
X0109983Y0042303D01*
X0110022Y0042304D01*
X0110061Y0042301D01*
X0110100Y0042294D01*
X0110137Y0042283D01*
X0110174Y0042269D01*
X0110209Y0042251D01*
X0110242Y0042230D01*
X0110273Y0042205D01*
X0110301Y0042178D01*
X0110326Y0042148D01*
X0110348Y0042115D01*
X0110367Y0042081D01*
X0110382Y0042045D01*
X0110394Y0042007D01*
X0110402Y0041969D01*
X0110406Y0041930D01*
X0110406Y0041890D01*
X0110402Y0041851D01*
X0110394Y0041813D01*
X0110382Y0041775D01*
X0110367Y0041739D01*
X0110348Y0041705D01*
X0110326Y0041672D01*
X0110301Y0041642D01*
X0110273Y0041615D01*
X0110242Y0041590D01*
X0110209Y0041569D01*
X0110174Y0041551D01*
X0110137Y0041537D01*
X0110100Y0041526D01*
X0110061Y0041519D01*
X0110022Y0041516D01*
X0109983Y0041517D01*
X0109944Y0041522D01*
X0109905Y0041531D01*
X0109868Y0041543D01*
X0109832Y0041559D01*
X0109798Y0041579D01*
X0109766Y0041602D01*
X0109737Y0041628D01*
X0109710Y0041657D01*
X0109686Y0041688D01*
X0109666Y0041722D01*
X0109649Y0041757D01*
X0109636Y0041794D01*
X0109626Y0041832D01*
X0109620Y0041871D01*
X0109618Y0041910D01*
D18*
X0110012Y0042008D02*
X0110012Y0041812D01*
X0111292Y0043190D02*
X0122118Y0043190D01*
X0122118Y0055985D01*
X0111292Y0055985D01*
X0111292Y0043190D01*
D19*
X0104905Y0036187D03*
X0104605Y0055787D03*
M02*
