%
M48
M72
T01C0.02362
T02C0.03600
T03C0.04000
%
T01
X82215Y53987
X127115Y51787
T02
X175584Y71007
X19959Y71104
T03
X20109Y18348
X55679Y42502
X55679Y52502
X66232Y64100
X76232Y64100
X86232Y64100
X98759Y65400
X98759Y55400
X140538Y52180
X140538Y42180
X126315Y25987
X116315Y25987
X101604Y15200
X91604Y15200
X176606Y17560
X140098Y66508
M30
