G75*
%MOIN*%
%OFA0B0*%
%FSLAX25Y25*%
%IPPOS*%
%LPD*%
%AMOC8*
5,1,8,0,0,1.08239X$1,22.5*
%
%ADD10R,0.04331X0.03937*%
%ADD11R,0.03937X0.04331*%
%ADD12R,0.02165X0.04331*%
%ADD13R,0.02500X0.10000*%
%ADD14R,0.00984X0.01772*%
%ADD15R,0.01772X0.00984*%
D10*
X0035441Y0018187D03*
X0042134Y0018187D03*
X0115159Y0036887D03*
X0121851Y0036887D03*
X0122759Y0062087D03*
X0129451Y0062087D03*
X0115385Y0067787D03*
X0108692Y0067787D03*
D11*
X0104605Y0059134D03*
X0104605Y0052441D03*
X0130005Y0041434D03*
X0130005Y0034741D03*
X0104905Y0032841D03*
X0104905Y0039534D03*
X0080115Y0018904D03*
X0068272Y0018808D03*
X0068272Y0012116D03*
X0080115Y0012211D03*
D12*
X0061650Y0017660D03*
X0054170Y0017660D03*
X0054170Y0028683D03*
X0057910Y0028683D03*
X0061650Y0028683D03*
D13*
X0072905Y0029087D03*
X0082905Y0029087D03*
X0092905Y0029087D03*
D14*
X0113752Y0044961D03*
X0115721Y0044961D03*
X0117689Y0044961D03*
X0119658Y0044961D03*
X0119658Y0054213D03*
X0117689Y0054213D03*
X0115721Y0054213D03*
X0113752Y0054213D03*
D15*
X0113063Y0051556D03*
X0113063Y0049587D03*
X0113063Y0047619D03*
X0120347Y0047619D03*
X0120347Y0049587D03*
X0120347Y0051556D03*
M02*
