G75*
%MOIN*%
%OFA0B0*%
%FSLAX25Y25*%
%IPPOS*%
%LPD*%
%AMOC8*
5,1,8,0,0,1.08239X$1,22.5*
%
%ADD10R,0.05131X0.04737*%
%ADD11R,0.04737X0.05131*%
%ADD12R,0.02965X0.05131*%
%ADD13C,0.08200*%
%ADD14OC8,0.07100*%
%ADD15R,0.03300X0.10800*%
%ADD16R,0.01784X0.02572*%
%ADD17R,0.02572X0.01784*%
%ADD18R,0.05162X0.05162*%
D10*
X0035441Y0018187D03*
X0042134Y0018187D03*
X0115159Y0036887D03*
X0121851Y0036887D03*
X0122759Y0062087D03*
X0129451Y0062087D03*
X0115385Y0067787D03*
X0108692Y0067787D03*
D11*
X0104605Y0059134D03*
X0104605Y0052441D03*
X0130005Y0041434D03*
X0130005Y0034741D03*
X0104905Y0032841D03*
X0104905Y0039534D03*
X0080115Y0018904D03*
X0068272Y0018808D03*
X0068272Y0012116D03*
X0080115Y0012211D03*
D12*
X0061650Y0017660D03*
X0054170Y0017660D03*
X0054170Y0028683D03*
X0057910Y0028683D03*
X0061650Y0028683D03*
D13*
X0020099Y0018348D03*
X0055669Y0042502D03*
X0055669Y0052502D03*
X0060222Y0065000D03*
X0070222Y0065000D03*
X0080222Y0065000D03*
X0091549Y0066100D03*
X0091549Y0056100D03*
X0140528Y0052180D03*
X0140528Y0042180D03*
X0126305Y0025987D03*
X0116305Y0025987D03*
X0101594Y0015200D03*
X0091594Y0015200D03*
X0176596Y0017560D03*
X0140088Y0066508D03*
D14*
X0175573Y0071007D03*
X0019949Y0071104D03*
D15*
X0072905Y0029087D03*
X0082905Y0029087D03*
X0092905Y0029087D03*
D16*
X0113752Y0044961D03*
X0115721Y0044961D03*
X0117689Y0044961D03*
X0119658Y0044961D03*
X0119658Y0054213D03*
X0117689Y0054213D03*
X0115721Y0054213D03*
X0113752Y0054213D03*
D17*
X0113063Y0051556D03*
X0113063Y0049587D03*
X0113063Y0047619D03*
X0120347Y0047619D03*
X0120347Y0049587D03*
X0120347Y0051556D03*
D18*
X0127105Y0051787D03*
X0082205Y0053987D03*
M02*
