G75*
%MOIN*%
%OFA0B0*%
%FSLAX25Y25*%
%IPPOS*%
%LPD*%
%AMOC8*
5,1,8,0,0,1.08239X$1,22.5*
%
%ADD10R,0.05131X0.04737*%
%ADD11R,0.04737X0.05131*%
%ADD12R,0.02965X0.05131*%
%ADD13C,0.08200*%
%ADD14OC8,0.07100*%
%ADD15R,0.03300X0.10800*%
%ADD16R,0.01784X0.02572*%
%ADD17R,0.02572X0.01784*%
%ADD18R,0.05162X0.05162*%
D10*
X0035451Y0018187D03*
X0042144Y0018187D03*
X0115169Y0036887D03*
X0121861Y0036887D03*
X0122769Y0062087D03*
X0129461Y0062087D03*
X0115395Y0067787D03*
X0108702Y0067787D03*
D11*
X0130015Y0041434D03*
X0130015Y0034741D03*
X0104915Y0032841D03*
X0104915Y0039534D03*
X0080125Y0018904D03*
X0068282Y0018808D03*
X0068282Y0012116D03*
X0080125Y0012211D03*
D12*
X0061660Y0017660D03*
X0054180Y0017660D03*
X0054180Y0028683D03*
X0057920Y0028683D03*
X0061660Y0028683D03*
D13*
X0020109Y0018348D03*
X0055679Y0042502D03*
X0055679Y0052502D03*
X0066232Y0064100D03*
X0076232Y0064100D03*
X0086232Y0064100D03*
X0098759Y0065400D03*
X0098759Y0055400D03*
X0140538Y0052180D03*
X0140538Y0042180D03*
X0126315Y0025987D03*
X0116315Y0025987D03*
X0101604Y0015200D03*
X0091604Y0015200D03*
X0176606Y0017560D03*
X0140098Y0066508D03*
D14*
X0175584Y0071007D03*
X0019959Y0071104D03*
D15*
X0072915Y0029087D03*
X0082915Y0029087D03*
X0092915Y0029087D03*
D16*
X0113762Y0044961D03*
X0115731Y0044961D03*
X0117699Y0044961D03*
X0119668Y0044961D03*
X0119668Y0054213D03*
X0117699Y0054213D03*
X0115731Y0054213D03*
X0113762Y0054213D03*
D17*
X0113073Y0051556D03*
X0113073Y0049587D03*
X0113073Y0047619D03*
X0120357Y0047619D03*
X0120357Y0049587D03*
X0120357Y0051556D03*
D18*
X0127115Y0051787D03*
X0082215Y0053987D03*
M02*
